<svg width="95" height="113" viewBox="0 0 95 113" fill="none" xmlns="http://www.w3.org/2000/svg">
<path d="M81.9309 91.6318L56.4435 86.6242C56.1458 85.8914 55.9408 85.1255 55.8329 84.3385C55.6212 82.7969 55.7938 81.2106 56.3321 79.7504L56.6126 78.9894C56.8993 78.7861 57.1798 78.5733 57.4534 78.3508C67.1485 70.5084 72.0644 63.4603 72.0644 57.4016C72.0644 56.769 72.0382 56.1324 71.9868 55.5098C71.9859 55.5013 71.9852 55.4928 71.9844 55.4845C71.9504 55.1421 71.9213 54.6681 71.8969 54.0759C75.1807 53.197 77.6664 49.7495 77.7077 45.6427C77.715 44.9086 77.6474 44.1902 77.5056 43.493C79.6474 42.5673 81.15 40.434 81.15 37.9567V35.0471C81.15 34.141 80.4156 33.4065 79.5093 33.4065H74.6017V26.5018C74.6017 14.3507 64.7135 4.46496 52.5594 4.46496H52.5014V2.46777C52.5014 1.56171 51.767 0.827148 50.8608 0.827148H43.6593C42.7532 0.827148 42.0187 1.56171 42.0187 2.46777V4.46496H41.6199C29.4657 4.46496 19.5778 14.3507 19.5778 26.5018V33.4065H14.7683C13.8623 33.4065 13.1277 34.141 13.1277 35.0471V37.9567C13.1277 40.4977 14.7082 42.6764 16.9379 43.5619C16.8047 44.2422 16.7397 44.9422 16.7467 45.6429C16.7876 49.727 19.2461 53.1591 22.5033 54.0613C22.4755 54.6604 22.4436 55.1509 22.4077 55.5155C22.3554 56.1011 22.329 56.7357 22.329 57.402C22.329 63.4588 27.2425 70.5049 36.9299 78.3416C37.1563 78.5258 37.3873 78.7035 37.6227 78.8745L37.9458 79.7506C38.4843 81.2114 38.6569 82.7989 38.4445 84.3413C38.3362 85.1281 38.1315 85.8936 37.8338 86.6257L12.5609 91.6309C5.4988 92.9977 0.373047 99.2091 0.373047 106.401V111.187C0.373047 112.093 1.10761 112.827 2.01367 112.827H54.1418C55.0481 112.827 55.7824 112.093 55.7824 111.187C55.7824 110.28 55.0481 109.546 54.1418 109.546H27.1863V104.763H67.2079V109.546H61.8405C60.9342 109.546 60.1999 110.28 60.1999 111.187C60.1999 112.093 60.9342 112.827 61.8405 112.827H92.4736C93.3798 112.827 94.1142 112.093 94.1142 111.187V106.401C94.1142 99.2091 88.9884 92.9975 81.9309 91.6318ZM76.2067 101.481H70.489V92.7277L76.2067 93.851V101.481ZM74.4267 45.6101C74.4039 47.8641 73.326 49.7998 71.8181 50.6085C71.7982 48.7607 71.798 46.5175 71.819 43.985H74.253C74.3729 44.51 74.4322 45.0588 74.4267 45.6101ZM52.5598 7.74621C62.3519 7.74621 70.4157 15.2848 71.2496 24.8612H64.2402C63.3339 24.8612 62.5995 25.5958 62.5995 26.5018C62.5995 27.4079 63.3339 28.1425 64.2402 28.1425H71.3207V33.4065H52.5018V7.74621H52.5598ZM45.3004 28.1425H49.2206V33.4065H45.3004V28.1425ZM49.2206 4.1084V24.8612H45.3004V4.1084H49.2206ZM22.8594 28.1425H29.9399C30.846 28.1425 31.5806 27.4079 31.5806 26.5018C31.5806 25.5958 30.846 24.8612 29.9399 24.8612H22.9305C23.7644 15.2848 31.8284 7.74621 41.6203 7.74621H42.0191V33.4065H22.8594V28.1425ZM20.0282 45.6101C20.0227 45.0584 20.0818 44.51 20.2016 43.985H22.6285C22.6416 46.4448 22.6317 48.7008 22.6013 50.5893C21.1121 49.7694 20.0507 47.8461 20.0282 45.6101ZM25.6107 57.402C25.6107 56.8326 25.6328 56.296 25.675 55.8218C25.883 53.7073 25.9333 48.5965 25.9095 43.9848H29.6258C30.5319 43.9848 31.2665 43.2502 31.2665 42.3442C31.2665 41.4381 30.5319 40.7035 29.6258 40.7035H19.1571C17.642 40.7035 16.4092 39.4713 16.4092 37.9567V36.6877H77.8687V37.9567C77.8687 39.4713 76.6361 40.7035 75.1208 40.7035H37.2974C36.3913 40.7035 35.6568 41.4381 35.6568 42.3442C35.6568 43.2502 36.3913 43.9848 37.2974 43.9848H68.5379C68.5084 47.6482 68.4999 53.5623 68.7178 55.7933C68.7613 56.3223 68.7834 56.8635 68.7834 57.402C68.7834 62.3506 64.152 68.7127 55.3874 75.8024C53.0883 77.6705 50.1951 78.698 47.2297 78.698C47.2103 78.698 47.191 78.698 47.1713 78.698C44.2024 78.698 41.3018 77.6681 38.9977 75.7936C30.2399 68.7086 25.6107 62.3491 25.6107 57.402ZM47.1639 81.979H47.2367C49.0784 81.979 50.8999 81.6614 52.6197 81.0552C52.4263 82.2872 52.4119 83.5468 52.5819 84.7849C52.7556 86.0489 53.1145 87.2723 53.6505 88.4276C53.465 91.8573 50.6153 94.5906 47.1392 94.5906C45.4303 94.5906 43.8153 93.9346 42.5911 92.7437C41.4044 91.5889 40.7149 90.0675 40.6274 88.428C41.1627 87.2741 41.5217 86.0519 41.6956 84.7887C41.8682 83.5341 41.8515 82.2575 41.6512 81.01C43.4097 81.6459 45.2767 81.9792 47.1639 81.979ZM18.1874 93.8615L23.9051 92.7293V101.481H18.1874V93.8615ZM3.65408 109.546V106.401C3.65408 100.778 7.66201 95.9211 13.1911 94.8512L14.9059 94.5117V109.546H3.65408ZM23.9051 109.518H18.1874V104.763H23.9051V109.518ZM27.1863 101.481V92.0794L37.531 90.0308C37.9167 91.9459 38.868 93.699 40.303 95.0955C42.1431 96.886 44.571 97.8721 47.1392 97.8721C51.8744 97.8721 55.8362 94.4976 56.7451 90.0277L67.2077 92.0833V101.482H27.1863V101.481ZM76.2067 104.763V109.517H70.489V104.763H76.2067ZM90.8329 109.546H79.4881V94.4957L81.3031 94.8522C86.825 95.9208 90.8329 100.778 90.8329 106.4V109.546Z" fill="#E31E24"/>
<path d="M47.1385 68.939C50.6243 68.939 53.6875 66.5909 54.5881 63.2288C54.8223 62.3535 54.3028 61.454 53.4276 61.2195C52.5519 60.9846 51.6527 61.5046 51.4182 62.38C50.9015 64.3098 49.1416 65.6577 47.1385 65.6577C45.1367 65.6577 43.3776 64.3098 42.8607 62.38C42.6262 61.5046 41.7256 60.9848 40.8514 61.2195C39.9762 61.4538 39.4567 62.3535 39.691 63.2288C40.5913 66.5909 43.6538 68.939 47.1385 68.939Z" fill="#E31E24"/>
</svg>
