<svg width="38" height="59" viewBox="0 0 38 59" fill="none" xmlns="http://www.w3.org/2000/svg">
<path d="M19.3951 25.6272C15.9172 25.6181 13.1067 22.8076 13.1026 19.3347H13.0981C13.1067 15.8598 15.9172 13.0452 19.3951 13.0407C22.8695 13.0452 25.684 15.8598 25.6881 19.3347C25.684 22.8076 22.8695 25.6181 19.3951 25.6272ZM19.3951 10.4805C14.5014 10.4805 10.5405 14.444 10.5405 19.3347C10.5405 24.2244 14.5014 28.1843 19.3951 28.1884C24.2858 28.1843 28.2493 24.2244 28.2493 19.3347C28.2493 14.444 24.2858 10.4805 19.3951 10.4805ZM26.9214 40.6516C23.9295 46.1711 20.9426 51.1121 19.3906 53.614C17.8481 51.1121 14.8562 46.1711 11.8678 40.6516C7.5525 32.7785 3.3006 23.4801 3.36443 19.3347C3.377 10.4805 10.5404 3.31555 19.3951 3.29896C28.2493 3.31555 35.4052 10.4805 35.4258 19.3347C35.4896 23.4801 31.2382 32.7785 26.9214 40.6516ZM19.3951 0.742271C9.12464 0.742271 0.806755 9.06322 0.802734 19.3347H0.806759C0.870588 24.7436 5.27074 33.7928 9.61012 41.8734C13.9646 49.8983 18.3085 56.6999 18.3175 56.7164L19.3906 58.4117L20.4732 56.7164C20.4822 56.6999 24.8226 49.8983 29.1791 41.8734C33.5159 33.7928 37.9151 24.7436 37.9825 19.3347C37.9825 9.06322 29.66 0.742271 19.3951 0.742271Z" fill="white"/>
</svg>
