<svg width="53" height="53" viewBox="0 0 53 53" fill="none" xmlns="http://www.w3.org/2000/svg">
<path d="M5.35052 6.17993C3.98181 7.55023 3.2097 9.79152 3.2097 12.6914C3.18447 19.4141 7.40202 29.2179 15.4929 37.3098C23.5612 45.4038 33.3887 49.6073 40.0945 49.5768C43.0165 49.5768 45.253 48.7989 46.6149 47.4286C47.2241 46.8667 48.6254 45.0322 49.213 43.9405L38.667 33.3903C36.4 35.2862 33.4155 37.5937 29.4859 37.6247C26.5619 37.6247 23.3504 36.2538 19.9544 32.8289C16.5431 29.4339 15.166 26.2292 15.1712 23.3036C15.2012 19.383 17.5123 16.3901 19.4035 14.1189L8.85853 3.56764C7.76261 4.15529 5.91504 5.56128 5.35052 6.17993ZM13.7331 39.0523C5.26697 30.5572 0.74398 20.3775 0.71875 12.6914C0.722429 9.35841 1.59288 6.43227 3.59339 4.40864C4.69089 3.38262 6.99049 1.48196 8.82491 0.920599L9.52238 0.734528L22.7706 13.9639L22.0401 14.8343C20.0012 17.2343 17.628 20.0989 17.6601 23.3036C17.6674 25.4208 18.5988 27.9706 21.7105 31.0875C24.8321 34.1987 27.3645 35.1312 29.4859 35.1312C32.7127 35.1627 35.5511 32.7974 37.9464 30.7417L38.822 30.0258L51.5605 42.7605L50.6806 43.6304L51.5605 42.7605L52.0692 43.2866L51.8779 43.9715C51.3076 45.8107 49.4159 48.1134 48.3773 49.2004C46.362 51.1941 43.427 52.0687 40.0945 52.0687C32.4252 52.034 22.2314 47.52 13.7331 39.0523Z" fill="white"/>
</svg>
