<svg width="113" height="113" viewBox="0 0 113 113" fill="none" xmlns="http://www.w3.org/2000/svg">
<path d="M112.263 93.1209L100.985 85.573L102.738 82.2245C103.05 81.6287 102.969 80.9032 102.532 80.3915C102.398 80.2336 99.3455 76.7135 92.3901 73.1512C94.8779 67.7353 96.8803 61.8126 98.3758 55.4317C102.877 36.2294 101.254 19.7416 101.182 19.0492C101.102 18.2731 100.489 17.6595 99.7128 17.5795C86.6034 16.2272 75.9186 11.8552 69.2639 8.42607C62.03 4.69817 57.8537 1.24398 57.8133 1.21037C57.2017 0.699407 56.3118 0.699407 55.7007 1.21037C55.5361 1.34789 38.9686 14.9834 13.801 17.5798C13.0248 17.6599 12.4115 18.2733 12.3315 19.0494C12.2995 19.3602 11.5576 26.7826 12.3933 37.4802C12.4642 38.387 13.2546 39.0658 14.1634 38.994C15.0705 38.9233 15.7482 38.1305 15.6774 37.2239C15.0663 29.3988 15.3332 23.2751 15.5045 20.7042C28.5465 19.1419 39.1613 14.7644 45.8543 11.3051C51.3093 8.48583 55.0456 5.85608 56.7569 4.56571C58.4677 5.85608 62.2044 8.48583 67.6592 11.3051C74.3525 14.7644 84.9668 19.1417 98.0085 20.7042C98.2917 24.9745 98.8312 39.0544 95.1685 54.6804C93.5818 61.4497 91.409 67.6734 88.6795 73.2909C88.6031 73.4482 88.5249 73.6033 88.4476 73.7593C88.2791 74.0998 88.1088 74.4383 87.9362 74.7744C87.8388 74.9638 87.7415 75.1529 87.6429 75.341C87.4597 75.69 87.2736 76.036 87.086 76.38C86.9294 76.6669 86.7708 76.9514 86.6113 77.2348C86.4681 77.4892 86.3242 77.7429 86.1787 77.9942C86.0322 78.2468 85.8842 78.4979 85.7352 78.7477C85.6278 78.928 85.5188 79.1064 85.4101 79.285C85.0586 79.8621 84.7012 80.4324 84.3359 80.9939C84.3091 81.035 84.2832 81.0767 84.2564 81.1178C84.0661 81.4086 83.8735 81.6957 83.6797 81.9822C83.5967 82.105 83.5132 82.2276 83.4293 82.3495C82.2843 84.0186 81.0779 85.6145 79.8112 87.1312C79.804 87.14 79.7967 87.1488 79.7895 87.1576C79.5441 87.451 79.2961 87.7408 79.0463 88.0286C78.8495 88.2546 78.6507 88.4778 78.451 88.7006C78.4108 88.7454 78.371 88.7911 78.3308 88.8357C78.1052 89.0856 77.8778 89.3332 77.6485 89.5788C77.6369 89.5913 77.6252 89.6041 77.6134 89.6166C71.7994 95.833 64.8137 100.632 56.7571 103.933C48.869 100.698 40.0382 95.1626 32.5481 85.702C32.5242 85.6717 32.5002 85.6411 32.4763 85.6108C32.3254 85.4195 32.1758 85.2253 32.0262 85.0309C29.2941 81.4563 26.8693 77.496 24.787 73.1947C24.7384 73.0943 24.6806 73.0012 24.6156 72.9155C20.8429 65.0649 17.9135 55.4853 16.3661 43.7898C16.2468 42.888 15.4167 42.2533 14.5173 42.3731C13.6156 42.4923 12.9811 43.3203 13.1004 44.2219C14.5202 54.9522 17.2145 64.6502 21.1241 73.1512C14.168 76.7139 11.1161 80.234 10.9814 80.3918C10.5449 80.9034 10.4634 81.629 10.7749 82.2247L12.5279 85.5732L1.25042 93.1211C0.772627 93.4412 0.496055 93.9871 0.521098 94.5615C0.546141 95.136 0.868845 95.6557 1.373 95.9332L10.5873 101.001V111.18C10.5873 111.771 10.9043 112.317 11.4177 112.61C11.671 112.755 11.9526 112.827 12.2344 112.827C12.524 112.827 12.8137 112.75 13.0719 112.598L31.3731 101.794C31.3845 101.787 31.3946 101.779 31.4058 101.772C31.4245 101.761 31.4427 101.748 31.4609 101.736C31.4937 101.714 31.5253 101.691 31.5561 101.666C31.571 101.655 31.5862 101.643 31.6007 101.631C31.6393 101.598 31.676 101.564 31.7112 101.528C31.7169 101.522 31.7228 101.517 31.7283 101.511C31.7709 101.467 31.8104 101.42 31.8474 101.371C31.8484 101.37 31.85 101.369 31.8513 101.367C31.8542 101.363 31.8564 101.359 31.8592 101.355C31.897 101.303 31.9313 101.25 31.9627 101.196C31.9693 101.184 31.9763 101.172 31.9827 101.161C32.0145 101.102 32.0433 101.042 32.0677 100.98C32.0719 100.969 32.0752 100.958 32.0791 100.948C32.0989 100.894 32.1158 100.84 32.1301 100.785C32.1338 100.77 32.138 100.755 32.1413 100.741C32.156 100.676 32.1672 100.611 32.1742 100.545C32.1751 100.537 32.1753 100.528 32.176 100.519C32.1813 100.46 32.183 100.4 32.1817 100.34C32.1815 100.327 32.1813 100.313 32.1808 100.299C32.1777 100.232 32.1714 100.164 32.16 100.097C32.1591 100.093 32.1578 100.088 32.1569 100.083C32.1459 100.022 32.1305 99.9612 32.1123 99.9007C32.1075 99.8849 32.1026 99.8693 32.0976 99.8537C32.076 99.7894 32.0519 99.7254 32.0218 99.6628L29.7655 94.9545C31.1198 94.2795 32.7004 93.5872 34.5193 92.9352C40.5988 99.1407 47.8292 103.93 56.1488 107.24C56.3445 107.317 56.5508 107.356 56.7575 107.356C56.9642 107.356 57.1707 107.317 57.3662 107.24C65.6711 103.936 72.9127 99.142 78.9964 92.9357C80.8151 93.5877 82.3955 94.2797 83.7496 94.9547L81.4933 99.6631C81.4632 99.7257 81.439 99.7898 81.4175 99.8542C81.4122 99.8698 81.4074 99.8854 81.4028 99.9012C81.3845 99.9616 81.3692 100.022 81.3582 100.084C81.3573 100.088 81.356 100.093 81.3553 100.098C81.3439 100.165 81.3375 100.232 81.3344 100.3C81.3338 100.314 81.3338 100.327 81.3336 100.341C81.3325 100.401 81.334 100.46 81.3393 100.52C81.3402 100.528 81.3402 100.537 81.341 100.546C81.3478 100.612 81.3593 100.677 81.374 100.741C81.3773 100.756 81.3815 100.77 81.3854 100.785C81.3995 100.84 81.4164 100.895 81.4362 100.948C81.4401 100.959 81.4434 100.97 81.4476 100.98C81.472 101.042 81.5005 101.102 81.5324 101.161C81.5387 101.173 81.5458 101.185 81.5526 101.196C81.584 101.251 81.618 101.304 81.6556 101.355C81.6587 101.359 81.6607 101.363 81.6637 101.367C81.6651 101.369 81.6664 101.37 81.6677 101.372C81.7046 101.42 81.7441 101.467 81.7868 101.512C81.7923 101.518 81.7982 101.523 81.8039 101.528C81.8388 101.564 81.8757 101.598 81.9144 101.631C81.9289 101.643 81.9441 101.655 81.959 101.667C81.9897 101.691 82.0214 101.714 82.0541 101.736C82.0723 101.749 82.0906 101.761 82.109 101.772C82.1202 101.779 82.1303 101.787 82.1418 101.794L100.443 112.598C100.701 112.751 100.99 112.827 101.28 112.827C101.562 112.827 101.844 112.755 102.097 112.61C102.61 112.317 102.927 111.771 102.927 111.18V101.001L112.142 95.9332C112.646 95.6559 112.968 95.1362 112.994 94.5615C113.017 93.9868 112.741 93.4409 112.263 93.1209ZM13.882 108.294V100.027C13.8818 99.4262 13.5547 98.8733 13.0284 98.5836L5.33398 94.3517L14.0652 88.5086L19.8583 99.5743C19.8902 99.6352 19.9257 99.6934 19.9644 99.749C19.9796 99.7707 19.9974 99.7903 20.0134 99.8111C20.0389 99.8443 20.0639 99.8781 20.0918 99.9089C20.1195 99.9396 20.1498 99.9675 20.1795 99.9961C20.1981 100.014 20.2157 100.033 20.2353 100.049C20.2717 100.081 20.3106 100.11 20.3499 100.139C20.3642 100.149 20.3781 100.16 20.3926 100.17C20.4365 100.2 20.4824 100.227 20.5292 100.252C20.5402 100.258 20.5509 100.265 20.5621 100.27C20.6122 100.296 20.6636 100.319 20.7166 100.34C20.7254 100.343 20.7342 100.347 20.7432 100.35C20.7979 100.371 20.8537 100.388 20.9108 100.403C20.9187 100.405 20.9268 100.407 20.9349 100.408C20.9707 100.417 21.0057 100.428 21.0424 100.434L25.8221 101.245L13.882 108.294ZM25.0574 97.7743C25.0958 97.7462 25.1362 97.7174 25.176 97.6888C25.2612 97.6275 25.3463 97.5665 25.4359 97.5036C25.4908 97.465 25.5495 97.4254 25.6061 97.3863C25.698 97.3231 25.7889 97.26 25.8849 97.1952C25.9429 97.1563 26.0046 97.1161 26.0644 97.0766C26.1652 97.0096 26.2649 96.9432 26.3704 96.8749C26.4082 96.8505 26.449 96.8255 26.4875 96.8009C26.6061 96.7249 26.7258 96.6489 26.8499 96.5716C26.8594 96.5656 26.8697 96.5597 26.8792 96.5538L27.677 98.2187L25.0574 97.7743ZM26.7893 92.7929C26.7847 92.7955 26.7796 92.7969 26.775 92.7995C26.761 92.8072 26.7476 92.8149 26.7335 92.8228C26.7333 92.8228 26.7333 92.8228 26.7331 92.823C26.7276 92.8261 26.7223 92.8291 26.7166 92.8322C26.6467 92.8709 26.5784 92.9093 26.5099 92.948C26.3822 93.0196 26.2573 93.091 26.134 93.1622C26.0606 93.2046 25.9871 93.2468 25.9152 93.2889C25.9071 93.2938 25.8992 93.2984 25.8911 93.3032C25.8799 93.3098 25.8691 93.3164 25.8579 93.3228C25.66 93.4392 25.4684 93.5543 25.2812 93.669C25.2525 93.6866 25.2226 93.7046 25.194 93.7221C25.0804 93.7922 24.97 93.8614 24.8603 93.9306C24.8368 93.9453 24.814 93.96 24.7907 93.9748C24.7878 93.9765 24.7852 93.9783 24.7823 93.98C23.5157 94.7851 22.5188 95.5312 21.7789 96.1416L16.3903 85.8487L14.2493 81.7579C15.4485 80.6264 18.1101 78.403 22.5612 76.116C22.7319 76.4501 22.9046 76.782 23.0794 77.1122C23.1682 77.2798 23.2589 77.4454 23.3487 77.6122C23.5761 78.034 23.8061 78.4531 24.0403 78.8681C24.0923 78.9606 24.1418 79.0555 24.1941 79.1475C25.9537 82.2394 27.8941 85.1234 30.006 87.801C30.0548 87.8629 30.1036 87.9249 30.1526 87.9866C30.3241 88.2026 30.4966 88.4174 30.6705 88.6305C30.76 88.7401 30.85 88.8488 30.9399 88.9578C31.093 89.143 31.2457 89.3284 31.4001 89.5114C31.6305 89.7847 31.8627 90.0553 32.0969 90.3235C30.0421 91.1242 28.2827 91.97 26.7893 92.7929ZM81.4179 90.3233C81.4208 90.3189 81.4245 90.3145 81.4282 90.3103C81.5704 90.148 81.7101 89.983 81.8503 89.8191C81.9357 89.7192 82.0218 89.6206 82.1068 89.5202C82.3215 89.2664 82.5337 89.0103 82.745 88.7528C82.7522 88.7441 82.7595 88.7355 82.7665 88.7267C83.7979 87.4675 84.7904 86.1618 85.7407 84.8077C85.8668 84.628 85.9881 84.4432 86.1124 84.262C86.2638 84.0419 86.4149 83.8218 86.5638 83.5992C86.731 83.3497 86.8967 83.0986 87.061 82.846C87.1937 82.6426 87.3246 82.4374 87.4553 82.232C87.6732 81.8899 87.8887 81.5461 88.1018 81.1988C88.2461 80.9636 88.3891 80.7272 88.531 80.4897C88.6976 80.2112 88.8627 79.9317 89.026 79.6499C89.2096 79.3334 89.3911 79.015 89.5708 78.6945C89.6694 78.5181 89.7687 78.3424 89.8662 78.1647C90.1015 77.737 90.3326 77.3051 90.5608 76.8703C90.6384 76.7225 90.7153 76.5742 90.7922 76.4257C90.8455 76.3225 90.9 76.2201 90.953 76.1164C95.3726 78.3907 98.0538 80.6268 99.2629 81.7619L91.7348 96.1416C90.9947 95.5312 89.9978 94.7849 88.7307 93.9798C88.7281 93.9781 88.7257 93.9765 88.723 93.9748C88.7 93.96 88.6769 93.9453 88.6536 93.9306C88.5442 93.8614 88.4337 93.7922 88.3204 93.7224C88.2846 93.7004 88.247 93.6778 88.2107 93.6558C88.0306 93.5455 87.8463 93.4348 87.6561 93.3228C87.6449 93.3162 87.6341 93.3096 87.6229 93.3032C87.6148 93.2984 87.6069 93.2938 87.5987 93.2889C87.5269 93.2468 87.4531 93.2046 87.3799 93.1622C87.2565 93.091 87.1315 93.0198 87.0041 92.948C86.9355 92.9096 86.867 92.8709 86.7974 92.8322C86.7919 92.8291 86.7866 92.8261 86.7809 92.823C86.7807 92.823 86.7807 92.8228 86.7807 92.8228C86.7666 92.8151 86.7532 92.8074 86.7391 92.7995C86.7345 92.7969 86.7295 92.7953 86.7249 92.7927C85.2319 91.9702 83.4728 91.1242 81.4179 90.3233ZM86.3101 97.2332L86.6357 96.5542C86.6453 96.5601 86.6554 96.5663 86.6651 96.5722C86.789 96.6491 86.9079 96.7249 87.0258 96.8005C87.0647 96.8253 87.1062 96.8508 87.1447 96.8756C87.2505 96.9439 87.3505 97.0107 87.4516 97.0779C87.5106 97.117 87.5722 97.157 87.6297 97.1957C87.7259 97.2605 87.8171 97.3237 87.9091 97.3872C87.9658 97.4263 88.0242 97.4659 88.0792 97.5045C88.167 97.5662 88.2505 97.626 88.3342 97.6862C88.3755 97.7159 88.4177 97.7459 88.4579 97.7752L85.8387 98.2198L86.3101 97.2332ZM100.486 98.5836C99.9595 98.8731 99.6321 99.4262 99.6321 100.027V108.294L87.6923 101.245L92.472 100.434C92.4894 100.431 92.5059 100.425 92.523 100.422C92.5636 100.413 92.6038 100.404 92.6436 100.393C92.6724 100.384 92.7009 100.376 92.729 100.366C92.7673 100.353 92.8048 100.338 92.8417 100.322C92.8692 100.311 92.8964 100.299 92.9232 100.286C92.9595 100.268 92.9944 100.248 93.0291 100.228C93.0544 100.213 93.0797 100.199 93.1038 100.183C93.1385 100.16 93.1715 100.134 93.2044 100.109C93.2262 100.092 93.2486 100.076 93.2692 100.058C93.3035 100.029 93.3354 99.9965 93.3672 99.9642C93.3841 99.9471 93.4021 99.9313 93.4182 99.9133C93.4553 99.8722 93.4896 99.828 93.5225 99.783C93.5309 99.7716 93.5405 99.7615 93.5484 99.7498C93.5875 99.6938 93.6234 99.6349 93.6554 99.5736L99.4487 88.5079L108.18 94.3511L100.486 98.5836Z" fill="#E31E24"/>
<path d="M90.9905 27.3562C90.9105 26.5801 90.2972 25.9667 89.521 25.8866C70.5197 23.9264 57.938 13.6089 57.8143 13.5058C57.2036 12.9955 56.3144 12.9955 55.7028 13.5049C55.578 13.6091 42.9963 23.9266 23.9947 25.8866C23.2186 25.9667 22.6053 26.5801 22.5253 27.3562C22.4939 27.6615 21.7685 34.9484 22.9001 44.898C23.9486 54.1149 26.8705 67.4064 34.8353 78.3847C35.1574 78.8287 35.6602 79.0646 36.1696 79.0646C36.5049 79.0646 36.8434 78.9625 37.1355 78.7505C37.8717 78.2163 38.0358 77.1862 37.5013 76.4501C29.9737 66.0741 27.191 53.4056 26.1821 44.6052C25.3548 37.389 25.5514 31.5164 25.7038 29.0071C42.0115 26.9794 53.3461 19.3997 56.7577 16.8563C60.1695 19.4 71.503 26.9801 87.8126 29.0071C87.9253 30.8409 88.0618 34.4724 87.8003 39.1203C87.7494 40.0286 88.4442 40.8061 89.3523 40.857C90.2631 40.9062 91.0386 40.2138 91.0893 39.3055C91.4843 32.278 91.0109 27.5541 90.9905 27.3562Z" fill="#E31E24"/>
<path d="M89.0441 44.2538C88.1425 44.1395 87.3176 44.7783 87.2034 45.6808C83.5372 74.6492 68.7622 86.6633 56.7569 91.6357C50.9555 89.2353 45.868 85.7899 41.6281 81.3887C40.9974 80.7338 39.9544 80.7138 39.2993 81.3452C38.6442 81.9763 38.6247 83.0191 39.2558 83.6742C43.9714 88.5688 49.6548 92.3604 56.1487 94.9436C56.3444 95.0213 56.5507 95.0602 56.7574 95.0602C56.9641 95.0602 57.1706 95.0213 57.3661 94.9436C67.9848 90.7194 76.2956 83.3649 82.0674 73.0843C86.3407 65.4727 89.168 56.3922 90.4713 46.0944C90.5855 45.1922 89.9463 44.368 89.0441 44.2538Z" fill="#E31E24"/>
<path d="M75.1742 40.2554C72.9247 38.0062 69.2654 38.0066 67.0159 40.2556L52.3457 54.9258L47.0502 49.6301C44.8007 47.3808 41.1413 47.3811 38.8919 49.6303C36.6428 51.8798 36.6428 55.5394 38.8919 57.7887L48.267 67.1635C49.3561 68.2531 50.8049 68.8529 52.3457 68.8529C53.887 68.8529 55.3355 68.2527 56.4249 67.1633L75.1744 48.414C77.4235 46.1647 77.4235 42.5049 75.1742 40.2554ZM72.8454 46.0847L54.0959 64.8341C53.6286 65.3014 53.0071 65.5588 52.3461 65.5588C51.6851 65.5588 51.0637 65.3014 50.5964 64.8341L41.2217 55.4594C40.2567 54.4944 40.2567 52.9246 41.2213 51.9595C41.7037 51.4771 42.3375 51.2359 42.9715 51.2359C43.605 51.2359 44.2388 51.4774 44.7212 51.9595L51.1812 58.42C51.4903 58.7291 51.909 58.9024 52.3459 58.9024C52.7826 58.9024 53.2016 58.7289 53.5106 58.42L69.3453 42.5851C70.3106 41.6198 71.8802 41.6196 72.8454 42.5846C73.8103 43.5499 73.8103 45.1199 72.8454 46.0847Z" fill="#E31E24"/>
</svg>
