<svg width="113" height="114" viewBox="0 0 113 114" fill="none" xmlns="http://www.w3.org/2000/svg">
<path d="M112.154 36.2134C109.962 29.4853 103.143 25.188 96.1271 25.5468C97.8532 22.941 98.7637 19.9262 98.7637 16.7678C98.7637 7.97811 91.6128 0.827148 82.823 0.827148C78.792 0.827148 74.9476 2.33399 71.9928 5.07107L27.8038 41.345C27.749 41.3899 27.6993 41.4385 27.6519 41.4886C23.1289 45.4218 20.2647 51.2159 20.2647 57.6666C20.2647 59.6237 20.5299 61.52 21.0235 63.3226C21.0235 63.3226 8.53234 75.0664 5.77657 77.8727C2.78531 80.9187 0.476562 86.5767 0.476562 91.9686C0.476562 103.789 10.0933 113.406 21.9141 113.406C30.8153 113.406 38.4658 107.953 41.7025 100.212C44.9389 107.953 52.5894 113.406 61.4904 113.406C70.0009 113.406 77.3687 108.421 80.8278 101.217L106.109 57.7829C107.181 55.9401 104.331 54.2806 103.258 56.1236L82.9083 91.0867C82.444 79.6735 73.0157 70.5313 61.4904 70.5313C60.5513 70.5313 59.626 70.5927 58.7184 70.7103C58.7184 70.7103 87.784 36.0351 93.0013 29.6291C99.105 26.7777 107.042 31.1703 109.018 37.2352C110.137 40.67 109.834 44.4667 108.187 47.6516C107.207 49.5457 110.137 51.0607 111.116 49.1668C113.166 45.2028 113.545 40.4816 112.154 36.2134ZM74.1369 7.57815C76.6809 5.48862 79.4468 4.12536 82.823 4.12536C89.7941 4.12536 95.4657 9.79675 95.4657 16.7681C95.4657 19.5109 94.6034 22.1175 92.9714 24.3089C92.9714 24.3089 64.9713 57.9731 62.9674 60.3922C63.0812 59.4995 63.1397 58.5896 63.1397 57.6666C63.1397 45.846 53.523 36.2291 41.7025 36.2291C40.7983 36.2291 39.9071 36.286 39.0322 36.3951L74.1369 7.57815ZM41.7022 39.5273C51.7042 39.5273 59.8413 47.6644 59.8413 57.6666C59.8413 67.4906 51.5338 75.8056 41.7022 75.8056C31.7003 75.8056 23.563 67.6685 23.563 57.6666C23.5632 47.6646 31.7003 39.5273 41.7022 39.5273ZM44.4925 78.9224C43.3663 80.3864 42.4243 81.9988 41.7022 83.7257C40.9801 81.9988 40.0382 80.3864 38.912 78.9224C39.8256 79.0416 40.7567 79.1038 41.7022 79.1038C42.6477 79.1038 43.5791 79.0416 44.4925 78.9224ZM22.2626 66.6966C22.9301 68.128 23.7509 69.4737 24.7044 70.7127C23.7907 70.5936 22.8596 70.5313 21.9141 70.5313C20.5136 70.5313 19.1444 70.6679 17.8181 70.9256L22.2626 66.6966ZM21.9141 110.108C11.9121 110.108 3.77477 101.971 3.77477 91.9686C3.77477 87.3346 5.52371 83.103 8.39315 79.8934C11.9361 76.1513 16.693 73.8296 21.9141 73.8296C31.916 73.8296 40.0534 81.9667 40.0534 91.9688C40.0534 101.971 31.916 110.108 21.9141 110.108ZM79.6297 91.9686C79.6297 101.971 71.4926 110.108 61.4904 110.108C51.4885 110.108 43.3513 101.971 43.3513 91.9686C43.3513 81.9665 51.4885 73.8293 61.4904 73.8293C71.4926 73.8296 79.6297 81.9667 79.6297 91.9686Z" fill="#E31E24"/>
<path d="M41.702 73.6064C50.4915 73.6064 57.6425 66.4557 57.6425 57.6659C57.6425 48.8762 50.4917 41.7255 41.702 41.7255C38.6507 41.7255 35.6797 42.5982 33.1099 44.249C31.3159 45.4014 33.0987 48.1763 34.8925 47.0239C36.9295 45.7154 39.2842 45.0237 41.702 45.0237C48.6729 45.0237 54.3442 50.6948 54.3442 57.6659C54.3442 64.637 48.6731 70.3082 41.702 70.3082C34.7309 70.3082 29.0599 64.637 29.0599 57.6659C29.0599 56.0571 29.3631 54.4832 29.9612 52.9884C30.7532 51.0088 27.691 49.7837 26.8989 51.7635C26.1443 53.6498 25.7617 55.6358 25.7617 57.6662C25.7617 66.4557 32.9125 73.6064 41.702 73.6064Z" fill="#E31E24"/>
<path d="M21.9129 76.0287C13.1234 76.0287 5.97266 83.1795 5.97266 91.9692C5.97266 100.759 13.1234 107.909 21.9129 107.909C30.7024 107.909 37.8534 100.759 37.8534 91.969C37.8534 83.1793 30.7024 76.0287 21.9129 76.0287ZM21.9129 104.611C14.942 104.611 9.27087 98.9401 9.27087 91.969C9.27087 84.9979 14.942 79.3267 21.9129 79.3267C28.8838 79.3267 34.5552 84.9979 34.5552 91.969C34.5552 98.9401 28.8838 104.611 21.9129 104.611Z" fill="#E31E24"/>
<path d="M61.4913 107.909C70.2808 107.909 77.4315 100.758 77.4315 91.9685C77.4315 83.1788 70.2808 76.028 61.4913 76.028C52.7017 76.028 45.5508 83.1788 45.5508 91.9685C45.5508 100.758 52.7017 107.909 61.4913 107.909ZM61.4913 79.3264C68.4621 79.3264 74.1333 84.9976 74.1333 91.9687C74.1333 98.9398 68.4621 104.611 61.4913 104.611C54.5204 104.611 48.849 98.9396 48.849 91.9685C48.849 84.9974 54.5204 79.3264 61.4913 79.3264Z" fill="#E31E24"/>
</svg>
