<svg width="25" height="47" viewBox="0 0 25 47" fill="none" xmlns="http://www.w3.org/2000/svg">
<path fill-rule="evenodd" clip-rule="evenodd" d="M0.914648 45.7292C0.752503 45.5675 0.623859 45.3753 0.536083 45.1638C0.448309 44.9523 0.403126 44.7255 0.403126 44.4965C0.403126 44.2675 0.448309 44.0407 0.536083 43.8292C0.62386 43.6176 0.752503 43.4255 0.914648 43.2638L20.579 23.6029L0.914652 3.9421C0.587713 3.61516 0.404043 3.17174 0.404043 2.70938C0.404043 2.24702 0.587713 1.8036 0.914652 1.47666C1.24159 1.14972 1.68501 0.966051 2.14737 0.966051C2.60973 0.966051 3.05315 1.14972 3.38009 1.47666L24.2736 22.3702C24.4358 22.5319 24.5644 22.7241 24.6522 22.9356C24.74 23.1471 24.7852 23.3739 24.7852 23.6029C24.7852 23.832 24.74 24.0587 24.6522 24.2702C24.5644 24.4818 24.4358 24.6739 24.2736 24.8357L3.38009 45.7292C3.21835 45.8913 3.02621 46.02 2.81468 46.1078C2.60315 46.1955 2.37639 46.2407 2.14737 46.2407C1.91835 46.2407 1.69158 46.1955 1.48005 46.1078C1.26852 46.02 1.07638 45.8913 0.914648 45.7292Z" fill="white"/>
</svg>
