<svg width="27" height="27" viewBox="0 0 27 27" fill="none" xmlns="http://www.w3.org/2000/svg">
<path d="M16.2282 13.9545L25.5372 4.66711C25.9448 4.25945 26.1738 3.70655 26.1738 3.13004C26.1738 2.55353 25.9448 2.00063 25.5372 1.59297C25.1295 1.18532 24.5766 0.956299 24.0001 0.956299C23.4236 0.956299 22.8707 1.18532 22.463 1.59297L13.1757 10.902L3.88833 1.59297C3.48067 1.18532 2.92778 0.956299 2.35126 0.956299C1.77475 0.956299 1.22185 1.18532 0.814197 1.59297C0.406541 2.00063 0.177523 2.55353 0.177523 3.13004C0.177523 3.70655 0.406541 4.25945 0.814197 4.66711L10.1232 13.9545L0.814197 23.2418C0.611286 23.4431 0.450231 23.6825 0.340323 23.9463C0.230415 24.2101 0.173828 24.4931 0.173828 24.7789C0.173828 25.0647 0.230415 25.3476 0.340323 25.6114C0.450231 25.8752 0.611286 26.1147 0.814197 26.3159C1.01545 26.5188 1.25489 26.6799 1.5187 26.7898C1.78251 26.8997 2.06547 26.9563 2.35126 26.9563C2.63705 26.9563 2.92002 26.8997 3.18383 26.7898C3.44764 26.6799 3.68708 26.5188 3.88833 26.3159L13.1757 17.0069L22.463 26.3159C22.6643 26.5188 22.9037 26.6799 23.1675 26.7898C23.4313 26.8997 23.7143 26.9563 24.0001 26.9563C24.2859 26.9563 24.5688 26.8997 24.8327 26.7898C25.0965 26.6799 25.3359 26.5188 25.5372 26.3159C25.7401 26.1147 25.9011 25.8752 26.011 25.6114C26.1209 25.3476 26.1775 25.0647 26.1775 24.7789C26.1775 24.4931 26.1209 24.2101 26.011 23.9463C25.9011 23.6825 25.7401 23.4431 25.5372 23.2418L16.2282 13.9545Z" fill="#333333"/>
</svg>
