<svg width="25" height="47" viewBox="0 0 25 47" fill="none" xmlns="http://www.w3.org/2000/svg">
<path fill-rule="evenodd" clip-rule="evenodd" d="M24.0854 1.47759C24.2475 1.63932 24.3761 1.83146 24.4639 2.04299C24.5517 2.25452 24.5969 2.48129 24.5969 2.71031C24.5969 2.93932 24.5517 3.16609 24.4639 3.37762C24.3761 3.58915 24.2475 3.78129 24.0854 3.94303L4.42104 23.6039L24.0854 43.2647C24.4123 43.5916 24.596 44.035 24.596 44.4974C24.596 44.9598 24.4123 45.4032 24.0854 45.7301C23.7584 46.0571 23.315 46.2407 22.8526 46.2407C22.3903 46.2407 21.9469 46.0571 21.6199 45.7301L0.726365 24.8366C0.56422 24.6748 0.435575 24.4827 0.347799 24.2712C0.260024 24.0596 0.214844 23.8329 0.214844 23.6039C0.214844 23.3748 0.260024 23.1481 0.347799 22.9365C0.435575 22.725 0.56422 22.5329 0.726365 22.3711L21.6199 1.47759C21.7816 1.31544 21.9738 1.1868 22.1853 1.09902C22.3968 1.01125 22.6236 0.966064 22.8526 0.966064C23.0817 0.966064 23.3084 1.01125 23.5199 1.09902C23.7315 1.1868 23.9236 1.31544 24.0854 1.47759Z" fill="white"/>
</svg>
